<svg width="96" height="96" viewBox="0 0 96 96" fill="none" xmlns="http://www.w3.org/2000/svg">
<path d="M48 96C74.5097 96 96 74.5097 96 48C96 21.4903 74.5097 0 48 0C21.4903 0 0 21.4903 0 48C0 74.5097 21.4903 96 48 96Z" fill="#FDE7E8"/>
<path fill-rule="evenodd" clip-rule="evenodd" d="M58.3017 43.076C60.9257 43.178 62.9397 45.284 62.9777 47.984V50.236C63.7457 50.392 66.5097 50.956 67.2557 51.13C70.5037 51.964 71.9897 54.504 71.9777 57.786C71.9557 61.008 70.5877 62.602 69.7137 64.602C69.1977 65.826 69.0117 66.824 68.9797 68.152L68.9777 72H55.5357C55.5437 70.476 55.3657 68.51 54.7257 67.126C53.8677 65.26 51.9757 63.628 49.8057 61.294C48.1957 59.46 47.9977 57.262 48.9277 55.554C49.7257 54.088 51.2757 53.142 53.3777 53.304C53.3777 51.492 53.3557 49.68 53.3777 47.87C53.5177 44.916 55.7657 43.046 58.3017 43.076ZM65.179 68C65.233 64.724 66.251 62.888 67.071 61.324C67.715 60.096 68.177 59.212 68.177 57.78C68.177 56.15 67.657 55.488 67.011 55.166C66.539 54.932 65.995 55.296 65.995 55.846V56.812C65.995 57.144 65.739 57.414 65.425 57.414C65.107 57.414 64.851 57.144 64.851 56.812V55.192C64.851 54.764 64.567 54.4 64.173 54.318C63.651 54.208 63.163 54.632 63.163 55.192V56.068C63.163 56.402 62.907 56.672 62.593 56.672C62.275 56.672 62.019 56.402 62.019 56.068V54.724C62.019 54.296 61.733 53.928 61.337 53.844C60.811 53.734 60.321 54.16 60.321 54.724V55.33C60.321 55.664 60.065 55.934 59.753 55.934C59.433 55.934 59.177 55.664 59.177 55.33V47.994C59.177 47.448 58.721 46.986 58.179 46.986C57.637 46.986 57.179 47.448 57.179 47.994V60.588C56.115 59.194 54.319 57.198 53.057 57.206C52.223 57.208 51.927 57.93 52.615 58.656C55.241 61.432 58.325 63.968 59.051 68H65.179ZM72 49.276C71.722 49.058 71.43 48.856 71.13 48.668C70.164 48.072 69.102 47.664 68 47.402V28.214C57.66 28.994 52.906 31.158 50 32.878V50C48.28 50.578 46.936 51.704 46 53.066V32.884C43.052 31.142 38.314 28.992 28 28.214V55.622C35.448 56.132 41.244 57.648 44.636 58.754C44.718 59.454 44.886 60.146 45.132 60.806C45.564 61.972 46.236 63.02 47.074 63.934C46.478 63.848 45.892 63.676 45.334 63.42C39.59 60.79 31.874 59.67 24 59.43V24C33.168 24.282 42.124 25.754 48 29.414C53.876 25.754 62.832 24.282 72 24V49.276ZM32 51.462C36.172 52.086 40.902 53.51 44 54.81V52.68C40.664 51.436 36.238 50.052 32 49.428V51.462ZM32 47.4C36.172 48.024 40.902 49.446 44 50.746V48.618C40.664 47.374 36.238 45.986 32 45.368V47.4ZM32 43.338C36.172 43.96 40.902 45.384 44 46.684V44.556C40.664 43.312 36.238 41.924 32 41.304V43.338ZM32 39.276C36.172 39.898 40.902 41.324 44 42.62V40.492C40.664 39.248 36.238 37.864 32 37.242V39.276ZM64 37.242C59.76 37.864 55.336 39.248 52 40.492V42.62C55.096 41.324 59.828 39.898 64 39.276V37.242ZM32 33.16C36.238 33.778 40.664 35.166 44 36.41V38.538C40.902 37.24 36.172 35.816 32 35.192V33.16ZM64 35.192C59.828 35.816 55.096 37.24 52 38.538V36.41C55.336 35.166 59.76 33.778 64 33.16V35.192Z" fill="#FF5670"/>
</svg>
