<svg width="96" height="96" viewBox="0 0 96 96" fill="none" xmlns="http://www.w3.org/2000/svg">
<path d="M48 96C74.5097 96 96 74.5097 96 48C96 21.4903 74.5097 0 48 0C21.4903 0 0 21.4903 0 48C0 74.5097 21.4903 96 48 96Z" fill="#EDF1FF"/>
<path fill-rule="evenodd" clip-rule="evenodd" d="M44 70C44 67.79 45.79 66 48 66H52C53.06 66 54.078 66.422 54.828 67.172C55.578 67.922 56 68.94 56 70V72H44V70ZM60 70C60 67.79 61.79 66 64 66H68C69.06 66 70.078 66.422 70.828 67.172C71.578 67.922 72 68.94 72 70V72H60V70ZM37.5176 42C38.8156 42 40.1036 41.574 40.9016 41.128C42.4116 40.288 46.2916 37.842 47.8716 36.88C48.3036 36.618 48.8616 36.714 49.1796 37.106L49.1956 37.128C49.5256 37.536 49.4876 38.126 49.1096 38.488C47.8656 39.682 44.2236 43.144 42.3696 44.914C41.3256 45.912 40.7256 47.28 40.6636 48.722C40.4736 53.136 40.1416 62.546 40.0016 66.388C39.9676 67.288 39.2276 68 38.3276 68H38.3256C37.4376 68 36.7536 67.306 36.6536 66.424C36.4316 64.462 35.9956 59.864 35.8016 58C35.7216 57.232 35.2416 56.774 34.6316 56.77C34.0236 56.768 33.5856 57.222 33.5336 57.988C33.4116 59.83 33.0036 64.484 32.8516 66.428C32.7836 67.312 32.0576 68 31.1716 68H31.1696C30.2656 68 29.5216 67.286 29.4856 66.384C29.2916 61.7 28.7476 48.456 28.7476 48.456L26.1736 53.116C25.8936 53.622 25.2836 53.844 24.7436 53.636H24.7416C24.1836 53.42 23.8816 52.814 24.0436 52.24L26.5316 43.454C26.7756 42.594 27.5616 42 28.4556 42H37.5176ZM50 56C52.484 56 54.5 58.016 54.5 60.5C54.5 62.984 52.484 65 50 65C47.516 65 45.5 62.984 45.5 60.5C45.5 58.016 47.516 56 50 56ZM66 56C68.484 56 70.5 58.016 70.5 60.5C70.5 62.984 68.484 65 66 65C63.516 65 61.5 62.984 61.5 60.5C61.5 58.016 63.516 56 66 56ZM72 54H44V50H58V48H64V50H68V28H28V36.712L24 40.712V24H72V54ZM58 44H52V42H58V44ZM34.748 32C37.23 32 39.248 34.016 39.248 36.5C39.248 38.984 37.23 41 34.748 41C32.264 41 30.248 38.984 30.248 36.5C30.248 34.016 32.264 32 34.748 32ZM64 40H52V38H64V40ZM64 36H52V34H64V36Z" fill="#3C50E0"/>
</svg>
