<svg width="96" height="96" viewBox="0 0 96 96" fill="none" xmlns="http://www.w3.org/2000/svg">
<path d="M48 96C74.5097 96 96 74.5097 96 48C96 21.4903 74.5097 0 48 0C21.4903 0 0 21.4903 0 48C0 74.5097 21.4903 96 48 96Z" fill="#FFF4DD"/>
<path fill-rule="evenodd" clip-rule="evenodd" d="M55.9921 72H30.7824C30.7824 72 32.2504 64.1377 32.0484 60.6275C31.9664 59.1795 31.7264 57.6794 30.9684 56.4193C29.6784 54.4193 25.6965 48.979 26.0185 41.5587C26.4664 31.1403 35.4044 24 46.2702 24C56.4661 24 63.2841 30.0022 65.986 38.9666C66.642 41.1247 66.608 42.0488 65.684 44.1808L65.672 44.2068L69.174 48.491C69.694 49.2531 70 50.0731 70 50.9691C70 52.0632 69.534 53.0592 68.78 53.7672C68.044 54.4573 67.246 54.6713 66.284 55.0513C66.284 55.0513 65.132 60.2355 64.5381 61.6336C63.1381 64.9197 60.5981 64.9517 58.5981 65.3317C57.8101 65.4977 57.6181 65.5977 57.2361 66.6938C56.8201 67.8758 56.5101 69.5639 55.9921 72ZM46.3085 27.9982C37.7386 28.0942 30.8286 33.0944 30.0667 40.9747C29.6827 44.9569 30.9926 48.947 33.0986 52.3852C34.3206 54.3853 35.7086 55.5693 36.0266 60.1355C36.2086 62.7616 35.9266 65.4077 35.5446 67.9998H52.7524C53.0344 66.7098 53.4524 65.0297 54.1264 63.8857C55.0244 62.3536 56.3204 61.6876 57.9784 61.3776C59.6543 61.0815 60.4543 61.2596 60.9563 59.8075C61.3803 58.6494 62.1803 55.3653 62.6183 52.0032C65.0243 51.3331 63.8423 51.6812 65.9603 50.8851C65.5483 50.4171 62.1243 46.2569 61.8703 45.6849C61.1983 44.1668 61.7783 43.3048 62.3203 41.8587C62.4923 41.3567 62.4403 41.1447 62.3023 40.6327C60.2043 32.7344 54.5204 27.9982 46.3085 27.9982ZM47.3479 33.9984C47.8319 35.3665 47.9719 36.2425 49.0299 36.6805H49.0319C50.0919 37.1225 50.8178 36.5925 52.1178 35.9745L54.0238 37.8786C53.3998 39.1886 52.8778 39.9107 53.3158 40.9667V40.9687C53.7538 42.0248 54.6218 42.1628 55.9998 42.6508V45.3449C54.6378 45.8309 53.7538 45.9709 53.3158 47.031C52.8758 48.089 53.4018 48.813 54.0238 50.1191L52.1178 52.0232C50.8038 51.3971 50.0899 50.8751 49.0359 51.3131H49.0339C47.9719 51.7572 47.8319 52.6352 47.3479 53.9993H44.6519C44.1679 52.6312 44.0279 51.7552 42.9699 51.3191L42.9679 51.3171C41.9099 50.8751 41.1839 51.4031 39.88 52.0232L37.976 50.1191C38.586 48.833 39.124 48.097 38.682 47.029C38.242 45.9709 37.36 45.8309 36 45.3449V42.6508C37.362 42.1668 38.242 42.0268 38.682 40.9687C39.122 39.9067 38.598 39.1866 37.976 37.8786L39.88 35.9745C41.1939 36.5985 41.9099 37.1205 42.9679 36.6805H42.9699C44.0279 36.2425 44.1679 35.3585 44.6519 33.9984H47.3479ZM46 47.333C44.16 47.333 42.666 45.8409 42.666 43.9988C42.666 42.1568 44.16 40.6647 46 40.6647C47.84 40.6647 49.3319 42.1568 49.3319 43.9988C49.3319 45.8409 47.84 47.333 46 47.333Z" fill="#FDB400"/>
</svg>
