<svg width="16" height="16" viewBox="0 0 16 16" fill="none" xmlns="http://www.w3.org/2000/svg">
<path fill-rule="evenodd" clip-rule="evenodd" d="M8 0C5.82667 0 5.556 0.00933333 4.70133 0.0493333C1.79467 0.182667 0.181333 1.79467 0.048 4.70133C0.00933333 5.556 0 5.828 0 8C0 10.1733 0.00933333 10.4453 0.048 11.2987C0.181333 14.204 1.79467 15.8187 4.70133 15.952C5.556 15.9907 5.82667 16 8 16C10.1733 16 10.4453 15.9907 11.3 15.952C14.2013 15.8187 15.8213 14.2067 15.952 11.2987C15.9907 10.4453 16 10.1733 16 8C16 5.828 15.9907 5.556 15.952 4.70133C15.8213 1.79867 14.2067 0.181333 11.3 0.0493333C10.4453 0.00933333 10.1733 0 8 0ZM8.00001 1.44287C10.136 1.44287 10.3893 1.45087 11.2333 1.48954C13.4027 1.5882 14.4133 2.6162 14.5133 4.7682C14.5507 5.6122 14.5587 5.8642 14.5587 8.0002C14.5587 10.1362 14.5507 10.3895 14.5133 11.2322C14.4133 13.3829 13.404 14.4135 11.2333 14.5122C10.3893 14.5495 10.1373 14.5589 8.00001 14.5589C5.86401 14.5589 5.61068 14.5509 4.76801 14.5122C2.59468 14.4122 1.58801 13.3802 1.48801 11.2322C1.45068 10.3895 1.44135 10.1362 1.44135 8.0002C1.44135 5.8642 1.45068 5.61087 1.48801 4.7682C1.58668 2.61487 2.59735 1.58687 4.76801 1.4882C5.61068 1.44954 5.86401 1.44287 8.00001 1.44287ZM3.89258 8.00009C3.89258 5.73076 5.73258 3.89209 8.00058 3.89209C10.2686 3.89209 12.1086 5.73209 12.1086 8.00009C12.1086 10.2694 10.2686 12.1081 8.00058 12.1081C5.73258 12.1081 3.89258 10.2694 3.89258 8.00009ZM8.00065 10.6668C6.52732 10.6668 5.33398 9.4735 5.33398 8.00016C5.33398 6.52816 6.52732 5.3335 8.00065 5.3335C9.47265 5.3335 10.6687 6.52683 10.6687 8.00016C10.6687 9.4735 9.47265 10.6668 8.00065 10.6668ZM11.3086 3.73075C11.3086 3.20009 11.7393 2.77075 12.2686 2.77075C12.8006 2.77075 13.2299 3.20009 13.2299 3.73075C13.2299 4.26142 12.7993 4.69075 12.2686 4.69075C11.7379 4.69075 11.3086 4.26009 11.3086 3.73075Z" fill="#515E81"/>
</svg>
